<svg width="70" height="70" viewBox="0 0 70 70" fill="none" xmlns="http://www.w3.org/2000/svg">
<path d="M21 26.25C21 26.9394 21.1358 27.6221 21.3996 28.2591C21.6635 28.896 22.0502 29.4748 22.5377 29.9623C23.0252 30.4498 23.604 30.8365 24.2409 31.1004C24.8779 31.3642 25.5606 31.5 26.25 31.5C26.9394 31.5 27.6221 31.3642 28.2591 31.1004C28.896 30.8365 29.4748 30.4498 29.9623 29.9623C30.4498 29.4748 30.8365 28.896 31.1004 28.2591C31.3642 27.6221 31.5 26.9394 31.5 26.25C31.5 24.8576 30.9469 23.5223 29.9623 22.5377C28.9777 21.5531 27.6424 21 26.25 21C24.8576 21 23.5223 21.5531 22.5377 22.5377C21.5531 23.5223 21 24.8576 21 26.25ZM24.5 26.25C24.5 25.7859 24.6844 25.3408 25.0126 25.0126C25.3408 24.6844 25.7859 24.5 26.25 24.5C26.7141 24.5 27.1592 24.6844 27.4874 25.0126C27.8156 25.3408 28 25.7859 28 26.25C28 26.7141 27.8156 27.1592 27.4874 27.4874C27.1592 27.8156 26.7141 28 26.25 28C25.7859 28 25.3408 27.8156 25.0126 27.4874C24.6844 27.1592 24.5 26.7141 24.5 26.25ZM59.5 21C59.5 18.2152 58.3938 15.5445 56.4246 13.5754C54.4555 11.6062 51.7848 10.5 49 10.5H21C18.2152 10.5 15.5445 11.6062 13.5754 13.5754C11.6062 15.5445 10.5 18.2152 10.5 21V31.5105C11.6935 31.5665 12.88 31.8325 14 32.312V21C14 19.1435 14.7375 17.363 16.0503 16.0503C17.363 14.7375 19.1435 14 21 14H49C50.8565 14 52.637 14.7375 53.9497 16.0503C55.2625 17.363 56 19.1435 56 21V51.891C55.9994 52.0286 55.9583 52.163 55.8818 52.2774C55.8053 52.3917 55.6968 52.481 55.5698 52.534C55.4428 52.5871 55.303 52.6015 55.1679 52.5755C55.0327 52.5496 54.9083 52.4843 54.81 52.388L51.9855 49.602L51.9925 49.5915L48.3245 45.9865L47.6035 45.2795L38.6785 36.512C37.6968 35.548 36.3759 35.0078 35 35.0078C33.6241 35.0078 32.3032 35.548 31.3215 36.512L25.214 42.511L27.6885 44.989L33.775 39.0075C34.1021 38.6869 34.5419 38.5073 35 38.5073C35.4581 38.5073 35.8979 38.6869 36.225 39.0075L45.871 48.482L52.3495 54.88C55.0025 57.498 59.5 55.615 59.5 51.891V21ZM58.1 59.6225C56.8085 60.2665 55.195 60.795 53.8405 60.4975C52.962 60.3015 51.821 59.822 50.54 59.283C47.4425 57.9775 43.5295 56.3325 40.523 57.5435C38.2935 58.4395 38.479 60.977 39.1055 62.1985C39.228 62.4295 39.1335 62.7585 38.878 62.818C37.598 63.0782 36.291 63.1816 34.986 63.126C34.9719 62.9608 34.9449 62.797 34.9055 62.636L33.593 57.393C33.2573 56.0406 32.5577 54.806 31.57 53.823L14.665 36.918C14.0589 36.3026 13.3369 35.8133 12.5408 35.4783C11.7446 35.1433 10.89 34.9691 10.0263 34.966C9.16249 34.9628 8.30665 35.1306 7.50806 35.4598C6.70946 35.7889 5.98392 36.2729 5.37326 36.8838C4.7626 37.4947 4.2789 38.2204 3.95005 39.0191C3.6212 39.8178 3.45369 40.6737 3.4572 41.5375C3.46071 42.4013 3.63516 43.2558 3.97049 44.0518C4.30582 44.8478 4.79539 45.5696 5.411 46.1755L22.316 63.077C23.3008 64.0623 24.5347 64.7615 25.886 65.1L30.163 66.1675C34.0865 67.3155 39.942 66.9445 41.7585 65.527C43.33 64.302 43.393 62.4225 42.8645 61.173C42.7455 60.893 42.9555 60.5325 43.253 60.578C44.9855 60.823 46.403 61.453 47.803 62.0725C49.8505 62.9825 51.849 63.868 54.719 63.511C57.2075 63.203 58.5935 61.9045 59.3565 60.6235C59.7835 59.9095 58.842 59.2515 58.0965 59.6225H58.1Z" fill="#928576"/>
</svg>
