<svg width="70" height="70" viewBox="0 0 70 70" fill="none" xmlns="http://www.w3.org/2000/svg">
<path d="M34.7266 46.0059C34.7266 46.3066 34.4941 46.5527 34.2139 46.5527H21.5674C21.2871 46.5527 21.0547 46.3066 21.0547 46.0059V42.7246C21.0547 42.4238 21.2871 42.1777 21.5674 42.1777H34.2139C34.4941 42.1777 34.7266 42.4238 34.7266 42.7246V46.0059ZM48.0498 46.4229L34.9248 35.417C34.665 35.1982 34.665 34.7949 34.9248 34.5762L48.0498 23.5771C48.129 23.5098 48.2259 23.4665 48.329 23.4526C48.4321 23.4387 48.537 23.4546 48.6313 23.4985C48.7256 23.5424 48.8053 23.6124 48.8609 23.7003C48.9166 23.7881 48.9459 23.8901 48.9453 23.9941V28.2803C48.9453 28.4443 48.877 28.5947 48.7471 28.6973L41.2412 35L48.7471 41.3027C48.8082 41.3539 48.8575 41.4176 48.8917 41.4896C48.9259 41.5615 48.9442 41.64 48.9453 41.7197V46.0059C48.9453 46.4707 48.4053 46.7236 48.0498 46.4229ZM9.84375 7.65625H60.1562C61.3662 7.65625 62.3438 8.63379 62.3438 9.84375V60.1562C62.3438 61.3662 61.3662 62.3438 60.1562 62.3438H9.84375C8.63379 62.3438 7.65625 61.3662 7.65625 60.1562V9.84375C7.65625 8.63379 8.63379 7.65625 9.84375 7.65625ZM12.5781 57.4219H57.4219V12.5781H12.5781V57.4219Z" fill="#928576"/>
</svg>
