<svg width="503" height="337" viewBox="0 0 503 337" fill="none" xmlns="http://www.w3.org/2000/svg">
<g opacity="0.8" clip-path="url(#clip0_31_35)">
<path d="M197.071 93.2497C213.324 93.2455 229.419 95.3873 244.437 99.5525C259.454 103.718 273.099 109.825 284.592 117.525C296.084 125.225 305.2 134.367 311.417 144.428C317.634 154.489 320.831 165.273 320.824 176.162C320.822 198.146 307.785 219.23 284.581 234.774C273.092 242.47 259.452 248.576 244.441 252.741C229.43 256.906 213.342 259.049 197.094 259.048C180.847 259.048 164.759 256.903 149.748 252.737C134.738 248.57 121.1 242.464 109.612 234.766C98.1238 227.069 89.0113 217.93 82.7946 207.873C76.578 197.816 73.3788 187.037 73.3799 176.152C73.3695 165.264 76.5619 154.482 82.7745 144.422C88.9871 134.361 98.0981 125.219 109.587 117.519C121.075 109.819 134.716 103.712 149.73 99.5454C164.744 95.3793 180.836 93.2364 197.086 93.2391L197.071 93.2497ZM197.071 238.012C221.54 237.984 244.997 231.461 262.302 219.87C279.608 208.28 289.353 192.567 289.403 176.173C289.361 159.775 279.62 144.057 262.313 132.461C245.007 120.866 221.546 114.34 197.071 114.312C172.603 114.343 149.151 120.871 131.855 132.467C114.559 144.063 104.831 159.78 104.802 176.173C104.835 192.563 114.566 208.276 131.861 219.868C149.157 231.46 172.607 237.984 197.071 238.012ZM197.071 87.6997C195.007 87.6997 192.962 87.4273 191.055 86.898C189.148 86.3688 187.415 85.5931 185.956 84.6152C184.496 83.6372 183.338 82.4763 182.548 81.1986C181.759 79.9209 181.352 78.5514 181.352 77.1684V26.0603C181.537 23.3488 183.276 20.7896 186.207 18.9156C189.138 17.0417 193.034 15.9973 197.086 16C201.137 16.0027 205.031 17.0523 207.956 18.9302C210.881 20.8081 212.613 23.3696 212.789 26.0813V77.1579C212.789 82.9501 205.763 87.6892 197.071 87.6892V87.6997ZM146.566 94.4186C144.66 94.9558 142.614 95.2345 140.547 95.2385C138.479 95.2425 136.43 94.9717 134.52 94.4419C132.609 93.912 130.874 93.1336 129.416 92.1517C127.957 91.1698 126.804 90.0038 126.022 88.7212L96.848 41.5096C95.2549 38.9329 95.254 36.0379 96.8457 33.4608C98.4374 30.8837 101.491 28.8355 105.336 27.7663C109.194 26.6999 113.524 26.6994 117.382 27.7649C121.24 28.8304 124.312 30.8753 125.928 33.4532L155.055 80.6753C156.648 83.252 156.648 86.1471 155.057 88.7242C153.465 91.3013 150.411 93.3495 146.566 94.4186ZM103.733 113.586C102.276 114.567 100.545 115.346 98.6376 115.877C96.7304 116.408 94.6852 116.682 92.6196 116.682C90.554 116.682 88.5088 116.408 86.6016 115.877C84.6944 115.346 82.9629 114.567 81.5065 113.586L27.5911 77.4317C26.0909 76.4595 24.8947 75.2969 24.0723 74.0117C23.2498 72.7264 22.8177 71.3443 22.8011 69.946C22.7844 68.5477 23.1836 67.1611 23.9753 65.8672C24.767 64.5734 25.9354 63.3981 27.4123 62.41C28.8892 61.4219 30.6451 60.6408 32.5774 60.1122C34.5097 59.5836 36.5798 59.3181 38.6669 59.3312C40.754 59.3443 42.8163 59.6358 44.7334 60.1886C46.6506 60.7415 48.3842 61.5446 49.8332 62.5511L103.749 98.6732C106.693 100.653 108.347 103.334 108.347 106.129C108.347 108.924 106.693 111.606 103.749 113.586H103.733ZM75.0775 142.283C74.291 143.562 73.1349 144.723 71.6758 145.701C70.2167 146.68 68.4833 147.455 66.5754 147.982C64.6675 148.51 62.6227 148.779 60.5587 148.775C58.4947 148.772 56.4522 148.494 54.5488 147.96L-15.8712 128.392C-17.795 127.87 -19.5454 127.098 -21.0214 126.12C-22.4974 125.142 -23.6697 123.978 -24.4706 122.695C-25.2716 121.412 -25.6853 120.036 -25.6879 118.645C-25.6906 117.254 -25.2821 115.877 -24.486 114.593C-23.6899 113.309 -22.5221 112.143 -21.0498 111.162C-19.5776 110.182 -17.8301 109.407 -15.9083 108.881C-13.9864 108.356 -11.9283 108.09 -9.85263 108.101C-7.77698 108.111 -5.72491 108.397 -3.81491 108.941L66.6051 128.498C74.6216 130.73 78.4256 136.902 75.0932 142.273L75.0775 142.283ZM-26.9372 165.557L49.3302 165.578C57.9755 165.578 65.049 170.296 65.0018 176.11C65.0018 181.944 57.9755 186.641 49.3145 186.641L-26.9686 186.62C-31.0159 186.498 -34.8373 185.336 -37.6373 183.374C-40.4373 181.412 -42 178.803 -42 176.088C-42 173.374 -40.4373 170.764 -37.6373 168.803C-34.8373 166.841 -31.0159 165.679 -26.9686 165.557H-26.9372ZM-15.9341 223.795L54.4859 204.26C56.3931 203.728 58.4381 203.453 60.5039 203.451C62.5698 203.449 64.616 203.719 66.5255 204.248C68.435 204.776 70.1704 205.551 71.6324 206.529C73.0945 207.507 74.2544 208.668 75.0461 209.946C78.347 215.338 74.5745 221.499 66.5579 223.742L-3.90924 243.257C-5.82401 243.812 -7.8844 244.106 -9.97052 244.123C-12.0566 244.139 -14.1269 243.878 -16.0607 243.353C-17.9945 242.829 -19.7534 242.052 -21.235 241.068C-22.7165 240.084 -23.8911 238.912 -24.6905 237.621C-25.4899 236.33 -25.898 234.945 -25.8912 233.547C-25.8844 232.15 -25.4628 230.767 -24.6509 229.479C-23.839 228.191 -22.653 227.025 -21.1619 226.047C-19.6708 225.07 -17.9044 224.301 -15.9655 223.784L-15.9341 223.795ZM81.4121 238.644C84.3767 236.726 88.3473 235.664 92.4687 235.688C96.5901 235.712 100.533 236.82 103.447 238.772C106.361 240.725 108.014 243.366 108.05 246.128C108.086 248.889 106.502 251.549 103.638 253.535L49.6603 289.657C48.2018 290.637 46.4691 291.414 44.5614 291.943C42.6538 292.473 40.6088 292.745 38.5439 292.744C36.4789 292.743 34.4345 292.469 32.528 291.938C30.6215 291.406 28.8904 290.628 27.434 289.647C21.3036 285.519 21.3036 278.852 27.434 274.745L81.4121 238.644ZM125.896 263.529C127.495 260.949 130.558 258.899 134.413 257.832C138.267 256.764 142.596 256.766 146.448 257.837C150.301 258.908 153.36 260.961 154.953 263.543C156.546 266.126 156.543 269.026 154.944 271.607L125.708 318.787C124.918 320.066 123.759 321.228 122.297 322.207C120.835 323.186 119.1 323.961 117.189 324.49C115.279 325.018 113.233 325.289 111.166 325.286C109.1 325.283 107.054 325.007 105.147 324.474C97.1309 322.262 93.327 316.08 96.6593 310.678L125.896 263.519V263.529ZM196.914 264.614C201.082 264.614 205.081 265.724 208.028 267.699C210.976 269.674 212.632 272.352 212.632 275.145L212.569 326.222C212.569 329.015 210.913 331.694 207.965 333.669C205.018 335.644 201.02 336.753 196.851 336.753C188.158 336.753 181.132 332.035 181.163 326.222L181.21 275.124C181.21 269.332 188.252 264.593 196.898 264.614H196.914ZM247.465 257.916C249.373 257.388 251.418 257.118 253.483 257.12C255.547 257.121 257.591 257.395 259.497 257.927C261.404 258.458 263.135 259.235 264.593 260.214C266.051 261.194 267.206 262.356 267.994 263.635L297.105 310.846C298.084 312.449 298.46 314.188 298.2 315.91C297.94 317.633 297.053 319.286 295.615 320.725C294.177 322.164 292.233 323.344 289.955 324.161C287.677 324.978 285.134 325.407 282.549 325.411C279.439 325.411 276.398 324.792 273.813 323.634C271.228 322.475 269.213 320.829 268.025 318.903L238.898 271.67C237.313 269.088 237.323 266.19 238.927 263.612C240.53 261.035 243.596 258.99 247.449 257.927L247.465 257.916ZM290.314 238.802C291.776 237.824 293.511 237.049 295.421 236.521C297.33 235.993 299.376 235.722 301.442 235.724C303.508 235.726 305.552 236.001 307.46 236.532C309.367 237.064 311.099 237.843 312.556 238.823L366.393 274.977C367.852 275.955 369.01 277.117 369.799 278.395C370.589 279.673 370.995 281.043 370.994 282.426C370.993 283.809 370.586 285.179 369.795 286.457C369.004 287.735 367.846 288.896 366.385 289.873C364.925 290.851 363.191 291.627 361.283 292.155C359.376 292.684 357.331 292.956 355.267 292.956C353.202 292.955 351.158 292.682 349.25 292.153C347.343 291.623 345.61 290.847 344.151 289.868L290.283 253.704C288.823 252.724 287.667 251.562 286.878 250.283C286.09 249.003 285.686 247.633 285.689 246.249C285.691 244.865 286.101 243.495 286.895 242.217C287.689 240.939 288.851 239.779 290.314 238.802ZM318.985 210.157C320.584 207.578 323.647 205.53 327.5 204.463C331.352 203.397 335.68 203.399 339.53 204.47L409.95 224.058C413.615 225.212 416.475 227.267 417.935 229.797C419.396 232.327 419.344 235.137 417.791 237.643C416.239 240.148 413.304 242.156 409.598 243.249C405.892 244.341 401.7 244.435 397.893 243.51L327.473 223.921C319.488 221.657 315.684 215.496 318.985 210.125V210.157ZM329.14 176.299C329.14 173.506 330.796 170.827 333.744 168.852C336.691 166.877 340.69 165.768 344.858 165.768L421.094 165.842C423.216 165.778 425.334 166.003 427.322 166.503C429.31 167.003 431.126 167.768 432.661 168.751C434.195 169.734 435.417 170.915 436.251 172.224C437.086 173.532 437.516 174.94 437.516 176.362C437.516 177.785 437.086 179.193 436.251 180.501C435.417 181.809 434.195 182.99 432.661 183.974C431.126 184.957 429.31 185.722 427.322 186.222C425.334 186.722 423.216 186.947 421.094 186.883L344.827 186.82C336.15 186.82 329.108 182.081 329.14 176.289V176.299ZM410.186 128.698L339.687 148.181C337.769 148.744 335.702 149.045 333.608 149.066C331.514 149.087 329.435 148.827 327.492 148.302C325.55 147.777 323.784 146.997 322.298 146.008C320.812 145.019 319.636 143.842 318.839 142.544C318.042 141.246 317.64 139.855 317.656 138.452C317.673 137.049 318.108 135.662 318.936 134.373C319.764 133.084 320.968 131.919 322.477 130.946C323.986 129.974 325.771 129.213 327.725 128.708L398.145 109.215C401.942 108.333 406.099 108.457 409.765 109.561C413.43 110.665 416.327 112.667 417.861 115.155C419.396 117.644 419.453 120.431 418.02 122.947C416.587 125.463 413.773 127.516 410.154 128.687L410.186 128.698ZM312.839 113.743C311.378 114.723 309.643 115.5 307.733 116.028C305.823 116.557 303.775 116.828 301.708 116.825C299.642 116.822 297.596 116.546 295.689 116.011C293.782 115.477 292.052 114.696 290.597 113.712C289.14 112.732 287.985 111.569 287.2 110.289C286.414 109.01 286.014 107.639 286.021 106.255C286.029 104.872 286.443 103.503 287.242 102.227C288.041 100.951 289.208 99.7937 290.676 98.8207L344.654 62.7722C346.115 61.7948 347.849 61.0199 349.757 60.4918C351.665 59.9638 353.709 59.693 355.774 59.695C357.838 59.6969 359.882 59.9716 361.787 60.5032C363.693 61.0349 365.424 61.8131 366.88 62.7933C368.341 63.7705 369.5 64.931 370.291 66.2086C371.082 67.4862 371.489 68.8558 371.489 70.2389C371.489 71.622 371.082 72.9915 370.291 74.2691C369.5 75.5467 368.341 76.7073 366.88 77.6845L312.824 113.743H312.839ZM268.402 88.8265C266.797 91.4059 263.729 93.4525 259.871 94.516C256.014 95.5796 251.684 95.5729 247.834 94.4976C243.984 93.4223 240.93 91.3663 239.342 88.7821C237.755 86.1978 237.765 83.2969 239.37 80.7175L268.654 33.5375C270.259 30.9567 273.328 28.9088 277.187 27.8442C281.046 26.7797 285.378 26.7858 289.23 27.8611C293.082 28.9365 296.138 30.993 297.727 33.5782C299.316 36.1635 299.307 39.0657 297.702 41.6465L268.402 88.8265Z" fill="#928576"/>
</g>
<defs>
<clipPath id="clip0_31_35">
<rect width="503" height="337" fill="white"/>
</clipPath>
</defs>
</svg>
