<svg width="317" height="451" viewBox="0 0 317 451" fill="none" xmlns="http://www.w3.org/2000/svg">
<g clip-path="url(#clip0_31_32)">
<path d="M82.5592 312.528C110.886 305.831 135.877 290.207 152.034 269.091C168.192 247.976 174.192 223.1 168.716 199.935C163.239 176.771 146.734 157.215 122.832 145.571C98.9293 133.926 69.5873 131.147 41.2606 137.844C12.934 144.541 -12.0569 160.165 -28.2144 181.281C-44.3718 202.396 -50.3723 227.272 -44.8958 250.437C-39.4193 273.601 -22.9143 293.157 0.988101 304.801C24.8905 316.446 54.2325 319.225 82.5592 312.528ZM75.6761 283.414C56.7917 287.879 37.2303 286.026 21.2954 278.263C5.36041 270.5 -5.64288 257.463 -9.2939 242.02C-12.9449 226.577 -8.94458 209.993 1.82706 195.916C12.5987 181.839 29.2593 171.422 48.1437 166.958C67.0282 162.493 86.5895 164.346 102.524 172.109C118.459 179.872 129.463 192.909 133.114 208.352C136.765 223.795 132.764 240.379 121.993 254.456C111.221 268.533 94.5605 278.95 75.6761 283.414ZM41.8539 60.8501L6.25199 69.267L16.5766 112.938L52.1785 104.521L41.8539 60.8501ZM107.243 337.434L71.6413 345.851L81.9659 389.522L117.568 381.105L107.243 337.434ZM188.616 86.5444L158.579 71.9115L128.123 111.713L158.16 126.346L188.619 86.559L188.616 86.5444ZM-4.30282 338.659L-34.3397 324.026L-64.796 363.828L-34.7591 378.461L-4.30282 338.659ZM-93.1655 131.413L-113.466 157.962L-68.411 179.911L-48.1068 153.377L-93.1621 131.428L-93.1655 131.413ZM192.231 270.461L171.927 296.995L216.982 318.945L237.286 292.41L192.231 270.461ZM-137.342 256.922L-130.459 286.036L-77.0562 273.411L-83.9392 244.297L-137.342 256.922ZM200.876 176.961L207.759 206.075L261.162 193.45L254.279 164.336L200.876 176.961Z" fill="#928576" fill-opacity="0.9"/>
</g>
<defs>
<clipPath id="clip0_31_32">
<rect width="439" height="359" fill="white" transform="translate(-193 101.003) rotate(-13.3015)"/>
</clipPath>
</defs>
</svg>
