<svg width="70" height="70" viewBox="0 0 70 70" fill="none" xmlns="http://www.w3.org/2000/svg">
<path d="M20.7813 63.4375C20.7813 64.3077 21.127 65.1423 21.7423 65.7577C22.3577 66.373 23.1923 66.7187 24.0625 66.7187H45.9375C46.8078 66.7187 47.6424 66.373 48.2577 65.7577C48.8731 65.1423 49.2188 64.3077 49.2188 63.4375C49.2188 62.5672 48.8731 61.7327 48.2577 61.1173C47.6424 60.5019 46.8078 60.1562 45.9375 60.1562H24.0625C23.1923 60.1562 22.3577 60.5019 21.7423 61.1173C21.127 61.7327 20.7813 62.5672 20.7813 63.4375ZM9.84378 28.4375C9.85226 32.351 10.7707 36.2089 12.5266 39.7064C14.2825 43.2039 16.8276 46.2451 19.961 48.5898C20.2189 48.7964 20.4268 49.0587 20.5688 49.357C20.7109 49.6554 20.7835 49.982 20.7813 50.3125C20.7885 51.7607 21.3669 53.1475 22.391 54.1715C23.415 55.1956 24.8018 55.7741 26.25 55.7812H43.75C45.1982 55.7741 46.585 55.1956 47.6091 54.1715C48.6331 53.1475 49.2116 51.7607 49.2188 50.3125V50.2578C49.223 49.9267 49.3043 49.6011 49.4562 49.3069C49.608 49.0126 49.8263 48.7578 50.0938 48.5625C53.2059 46.239 55.7351 43.2236 57.4815 39.7546C59.2278 36.2856 60.1436 32.458 60.1563 28.5742C60.2383 14.957 49.2188 3.60937 35.6016 3.28124C32.2478 3.20102 28.9117 3.79243 25.7899 5.02069C22.668 6.24894 19.8233 8.08922 17.4233 10.4332C15.0232 12.7772 13.1162 15.5776 11.8146 18.6696C10.5129 21.7616 9.84282 25.0827 9.84378 28.4375ZM16.4063 28.4375C16.4056 25.9585 16.9006 23.5043 17.8623 21.2194C18.824 18.9346 20.2328 16.865 22.006 15.1326C23.7792 13.4002 25.8809 12.0398 28.1876 11.1315C30.4942 10.2233 32.9592 9.78541 35.4375 9.84374C45.5 10.0898 53.6485 18.4844 53.5938 28.5469C53.5896 31.4172 52.9149 34.2469 51.6237 36.8105C50.3324 39.374 48.4602 41.6005 46.1563 43.3125C45.2183 44.0186 44.4304 44.9046 43.8389 45.9187C43.2473 46.9328 42.8639 48.0547 42.711 49.2187H27.2617C27.1257 48.0599 26.7549 46.9408 26.1719 45.9301C25.589 44.9193 24.8061 44.0379 23.8711 43.3398C21.5468 41.614 19.6603 39.3662 18.3637 36.7778C17.0671 34.1893 16.3966 31.3325 16.4063 28.4375ZM32.0742 15.6406C32.9227 15.4448 33.8143 15.5941 34.5527 16.0556C35.2911 16.5171 35.8159 17.2531 36.0117 18.1016C36.2076 18.95 36.0583 19.8416 35.5968 20.58C35.1352 21.3184 34.3993 21.8432 33.5508 22.0391C32.3415 22.3099 31.2341 22.9189 30.3578 23.7952C29.4815 24.6715 28.8724 25.7789 28.6016 26.9883C28.4301 27.7092 28.0216 28.3517 27.4415 28.8127C26.8615 29.2738 26.1434 29.5269 25.4024 29.5312C25.154 29.531 24.9064 29.5035 24.6641 29.4492C24.2438 29.3525 23.8468 29.1739 23.4956 28.9236C23.1444 28.6733 22.846 28.3563 22.6174 27.9906C22.3889 27.6249 22.2346 27.2177 22.1635 26.7924C22.0925 26.367 22.1059 25.9319 22.2032 25.5117C22.7593 23.1072 23.9793 20.9071 25.7245 19.1619C27.4696 17.4168 29.6697 16.1967 32.0742 15.6406Z" fill="#928576"/>
</svg>
